# xmcd
#
# Track frame offsets:
#	150
#	25403
#	58382
#	72499
#	82607
#	98430
#	115273
#	127531
#	145511
#	168071
#	182303
#	195208
#	210915
#	234306
#	252665
#	267298
#	295293
#
# Disc length: 4190 seconds
#
# Revision: 3
# Processed by: cddbd v1.5.1PL2 Copyright (c) Steve Scherf et al.
# Submitted via: dBpowerAMP V4.0
#
DISCID=d7105c11
DTITLE=Various Artist - Best of the Blues
DYEAR=2004
DGENRE=Blues
TTITLE0=Roy Brown - Boogie Woogie Blues
TTITLE1=Canned Heat - Bullfrog Blues
TTITLE2=Pee Wee Crayton - Blues in the Ghetto
TTITLE3=Dr. John - Woman Is The Root of All Evil
TTITLE4=Screamin' Jay Hawkins - I Put a Spell on You
TTITLE5=Johnny Otis - Low Down Dirty Dog Blues
TTITLE6=Memphis Slim - I'll Just Keep on Singing The Blues
TTITLE7=Lightnin' Hopkins - Shake That Thing
TTITLE8=B.B. King - The Thrill Is Gone
TTITLE9=Buddy Guy - Broken Hearted Blues
TTITLE10=Charles Brown - Big Legged Woman
TTITLE11=Canned Heat - Chicken Shack Blues
TTITLE12=Pee Wee Crayton - Blues After Hours
TTITLE13=James Cotton Band - Got My Mojo Working
TTITLE14=Sam and Dave - When Something is Wrong With my Baby
TTITLE15=Johnny Otis - Barrelhouse Blues
TTITLE16=John Mayall - John Lee Boogie
EXTD=Resubmitting the track info for this compilation album.  Current track info does not have the artist name, so this submission would correct that.  Track info has the artist name in the proper format for compilation albums.
EXTT0=
EXTT1=
EXTT2=
EXTT3=
EXTT4=
EXTT5=
EXTT6=
EXTT7=
EXTT8=
EXTT9=
EXTT10=
EXTT11=
EXTT12=
EXTT13=
EXTT14=
EXTT15=
EXTT16=
PLAYORDER=
